<svg width="24" height="24" viewBox="0 0 24 24" fill="none" xmlns="http://www.w3.org/2000/svg">
<path fill-rule="evenodd" clip-rule="evenodd" d="M14.0438 21.847C16.5302 19.7441 20.3996 15.6866 20.3996 10.7999C20.3996 6.16071 16.6388 2.3999 11.9996 2.3999C7.36042 2.3999 3.59961 6.16071 3.59961 10.7999C3.59961 15.6866 7.46902 19.7441 9.95544 21.847C11.1515 22.8585 12.8478 22.8585 14.0438 21.847ZM11.9996 14.3999C13.9878 14.3999 15.5996 12.7881 15.5996 10.7999C15.5996 8.81168 13.9878 7.1999 11.9996 7.1999C10.0114 7.1999 8.39961 8.81168 8.39961 10.7999C8.39961 12.7881 10.0114 14.3999 11.9996 14.3999Z" fill="black"/>
<style xmlns="">
    html {
      display: revert !important;
    }
  </style></svg>